<?xml version="1.0" encoding="utf-8"?>
<!-- Generator: Adobe Illustrator 25.4.1, SVG Export Plug-In . SVG Version: 6.00 Build 0)  -->
<svg version="1.1" id="Capa_1" xmlns="http://www.w3.org/2000/svg" xmlns:xlink="http://www.w3.org/1999/xlink" x="0px" y="0px"
	 viewBox="0 0 2000 2000" style="enable-background:new 0 0 2000 2000;" xml:space="preserve">
<g>
	<path d="M784.66,987.77h-533.2l-26.04,134.16l118.22,103.43l20.37-103.43h392.3l118.22,103.43l20.72-103.43v0
		C908.77,1052.39,855.51,987.77,784.66,987.77z M1511.34,1256.1H979.97c-0.14,0.7-0.27,1.39-0.41,2.09
		c-13.31,68.47,39.14,132.08,108.89,132.08h396.14l-26.08,134.16H927.82l-26.09,134.16h669.19l51.99-267.09
		C1636.58,1321.32,1582.83,1256.1,1511.34,1256.1z M869.17,1256.1H199.29l-52.11,267.7c-13.6,69.86,39.9,134.78,111.08,134.78h1.59
		l51.97-268.33h180.72l193.08,268.33h165.29l-193.08-268.33h185.25L869.17,1256.1z M1564.83,987.77h-532.72l-0.01,0.03l-0.03-0.03
		l-26.04,134.16l116.32,103.43l20.36-103.43h532.68l0,0C1688.93,1052.4,1635.67,987.77,1564.83,987.77z"/>
	<polygon points="815.41,342.2 71.64,454.76 1177.84,674.5 799.35,674.5 621.57,875.89 1928.79,604.73 	"/>
</g>
</svg>
